<svg width="626" height="408" viewBox="0 0 626 408" fill="none" xmlns="http://www.w3.org/2000/svg">
<circle cx="590.5" cy="241.5" r="34" stroke="#F8B611" stroke-width="3"/>
<rect x="553.261" y="87.587" width="36.587" height="320.413" fill="#46CEC1"/>
<rect x="400.261" y="241.696" width="36.587" height="166.304" fill="#3CA9E5"/>
<rect x="324" y="331" width="37" height="77" fill="#2C297A"/>
<rect x="476.761" y="179.609" width="36.587" height="228.391" fill="#27B750"/>
<rect x="28" y="49" width="175" height="132" fill="#2C297A"/>
<rect x="2" y="71" width="51" height="51" stroke="#F8B611" stroke-width="4"/>
<rect opacity="0.3" x="49" y="266" width="131" height="23" fill="white"/>
<path d="M539.957 87.587V158.544" stroke="white" stroke-width="2"/>
<path d="M463.457 179.609V250.565" stroke="white" stroke-width="2"/>
<path d="M400.261 242.804L259.457 242.804" stroke="white" stroke-width="2"/>
<path d="M91 206C91 181.08 98.3898 156.719 112.235 135.998C126.08 115.278 145.758 99.1278 168.782 89.5912C191.805 80.0545 217.14 77.5593 241.581 82.4211C266.023 87.2828 288.474 99.2831 306.095 116.905C323.717 134.526 335.717 156.977 340.579 181.419C345.441 205.86 342.945 231.195 333.409 254.218C323.872 277.242 307.722 296.92 287.002 310.765C266.281 324.61 241.92 332 217 332" stroke="white" stroke-width="2"/>
<path d="M515 7.6932e-06C515 11.5563 512.724 22.9995 508.301 33.6761C503.879 44.3528 497.397 54.0538 489.225 62.2254C481.054 70.397 471.353 76.879 460.676 81.3014C449.999 85.7238 438.556 88 427 88C415.444 88 404.001 85.7238 393.324 81.3014C382.647 76.879 372.946 70.397 364.775 62.2254C356.603 54.0538 350.121 44.3528 345.699 33.6761C341.276 22.9995 339 11.5563 339 0L515 7.6932e-06Z" fill="#3C43B7"/>
<circle cx="323" cy="132" r="38" fill="#CE2960"/>
<rect x="125.717" y="320.957" width="4.43478" height="4.43478" fill="#F8B611"/>
<rect x="140.13" y="320.957" width="4.43478" height="4.43478" fill="#F8B611"/>
<rect x="154.543" y="320.957" width="4.43478" height="4.43478" fill="#F8B611"/>
<rect x="125.717" y="338.696" width="4.43478" height="4.43478" fill="#F8B611"/>
<rect x="125.717" y="356.435" width="4.43478" height="4.43478" fill="#F8B611"/>
<rect x="125.717" y="374.174" width="4.43478" height="4.43478" fill="#F8B611"/>
<rect x="140.13" y="338.696" width="4.43478" height="4.43478" fill="#F8B611"/>
<rect x="140.13" y="356.435" width="4.43478" height="4.43478" fill="#F8B611"/>
<rect x="140.13" y="374.174" width="4.43478" height="4.43478" fill="#F8B611"/>
<rect x="154.543" y="338.696" width="4.43478" height="4.43478" fill="#F8B611"/>
<rect x="154.543" y="356.435" width="4.43478" height="4.43478" fill="#F8B611"/>
<rect x="154.543" y="374.174" width="4.43478" height="4.43478" fill="#F8B611"/>
</svg>
